<?xml version="1.0" encoding="utf-8"?>
<!-- Generator: Adobe Illustrator 27.2.0, SVG Export Plug-In . SVG Version: 6.00 Build 0)  -->
<svg version="1.1" id="Layer_1" xmlns="http://www.w3.org/2000/svg" xmlns:xlink="http://www.w3.org/1999/xlink" x="0px" y="0px"
	 viewBox="0 0 108 80" enable-background="new 0 0 108 80" xml:space="preserve">
<g>
	<polygon fill="#345c97" points="31.36,15.5 26.37,24.97 27.37,45.76 25.38,51.74 12.91,55.9 14.4,66.54 25.87,72.69 40.51,72.86 
		56.97,76.85 80.33,75.76 94.21,69.37 101.2,58.89 96.63,48.33 90.55,38.27 77.42,37.11 69.44,31.29 54.64,33.29 56.97,14.33 
		39.34,13.83 	"/>
	<g>
		<path fill="#FFFFFF" d="M105.16,42.13c0.67,0,1.27,0.27,1.71,0.71c0.44,0.44,0.71,1.04,0.71,1.71c0,0.67-0.27,1.27-0.71,1.71
			c-0.44,0.44-1.04,0.71-1.71,0.71c-0.67,0-1.27-0.27-1.71-0.71c-0.44-0.44-0.71-1.04-0.71-1.71c0-0.67,0.27-1.27,0.71-1.71
			C103.88,42.4,104.49,42.13,105.16,42.13L105.16,42.13z M106.48,43.23c-0.34-0.34-0.81-0.55-1.32-0.55c-0.52,0-0.98,0.21-1.32,0.55
			c-0.34,0.34-0.55,0.8-0.55,1.32c0,0.52,0.21,0.98,0.55,1.32c0.34,0.34,0.81,0.55,1.32,0.55c0.51,0,0.98-0.21,1.32-0.55
			c0.34-0.34,0.55-0.81,0.55-1.32C107.02,44.04,106.81,43.57,106.48,43.23z"/>
		<path fill="#FFFFFF" d="M104.24,45.71v-2.42h1.03c0.26,0,0.45,0.02,0.56,0.06c0.12,0.04,0.21,0.12,0.28,0.23
			c0.07,0.11,0.11,0.24,0.11,0.38c0,0.18-0.05,0.33-0.16,0.45c-0.11,0.12-0.27,0.19-0.48,0.22c0.11,0.06,0.19,0.13,0.26,0.2
			c0.07,0.07,0.16,0.2,0.28,0.39l0.3,0.47h-0.58l-0.35-0.53c-0.12-0.19-0.21-0.31-0.26-0.35c-0.05-0.05-0.1-0.08-0.15-0.1
			c-0.05-0.02-0.13-0.03-0.25-0.03h-0.1v1.01H104.24L104.24,45.71z M104.73,44.31h0.36c0.23,0,0.38-0.01,0.44-0.03
			c0.06-0.02,0.1-0.05,0.14-0.1c0.03-0.05,0.05-0.11,0.05-0.18c0-0.08-0.02-0.15-0.07-0.2c-0.04-0.05-0.1-0.08-0.19-0.1
			c-0.04-0.01-0.16-0.01-0.36-0.01h-0.38V44.31z"/>
		<path fill-rule="evenodd" clip-rule="evenodd" fill="#FFFFFF" d="M34.16,0.66c11.06,0,20.62,6.44,25.11,15.78
			c8.06,0.36,15.84,4.34,18.83,13.09c14.31-5.95,24.42,7.89,21.89,17.5c12.94,8.1,4.91,22.95-11.87,28.15
			c-12.9,4-31.56,6.37-50.08,1.2C4.36,82-11.08,52.17,10.13,42.63v0C7.7,38.49,6.3,33.67,6.3,28.52C6.3,13.13,18.77,0.66,34.16,0.66
			L34.16,0.66z M33.14,30.12c0,3.3,0.67,6.02,1.82,7.91c1.16,1.93,2.82,3.01,4.75,3.01c2.37,0,4.01-1.14,5.1-2.91
			c1.33-2.16,1.85-5.26,1.85-8.41c0-2.7-0.17-5.81-1.12-8.25c-0.95-2.42-2.67-4.18-5.78-4.18c-2.23,0-3.75,1.38-4.76,3.32
			C33.55,23.39,33.14,27.31,33.14,30.12L33.14,30.12z M61.6,33.38c-1.32,7.5-5.64,13.97-11.68,18.12c0.12-0.19,0.24-0.38,0.35-0.58
			c0.49-0.89,0.79-1.86,0.98-2.91c0.18-1.04,0.24-2.17,0.24-3.36l-0.02-23.74c0-1.48,0.34-2.56,1.08-3.27
			c0.74-0.71,1.86-1.05,3.42-1.05h0.07v-0.07l0-1.02v-0.07h-0.07l-4.56,0.01l0,0h-4.68h-0.07v0.07v3.73
			c-0.82-1.47-1.86-2.54-3.08-3.26c-1.38-0.82-2.98-1.18-4.72-1.18c-0.7,0-1.36,0.06-1.98,0.16c-3.4,0.58-5.69,2.66-7.12,5.35
			c-1.44,2.68-2.03,5.97-2.03,8.99c0,1.26,0.1,2.48,0.29,3.59c0.57,3.36,1.83,6.07,3.7,7.93c1.81,1.8,4.21,2.79,7.14,2.79
			c1.93,0,3.38-0.28,4.61-0.99c1.17-0.68,2.14-1.74,3.13-3.32c-0.01,0.43-0.01,0.99-0.01,1.63c0,2.8-0.01,7.11-0.51,8.61
			c-0.46,1.36-1.29,2.31-2.29,2.93c-1.22,0.76-2.69,1.06-4.08,1.06c-1.33,0-2.8-0.46-3.91-1.42c-0.92-0.8-1.58-1.93-1.7-3.43
			l-0.01-0.07h-0.07h-5.47h-0.07l0,0.07c0.1,2.56,1.33,4.26,2.99,5.37c2.11,1.42,4.92,1.89,6.97,2c-1.4,0.22-2.83,0.33-4.29,0.33
			c-3.79,0-7.4-0.76-10.69-2.13c-17.4,0.09-8.7,21.03,17.07,16.51c15.87,6.67,37.03,6.74,49.39-0.31
			c9.51-5.42,13.53-15.47,3.97-20.47c1.66-9.6-8.75-16.08-17.26-8.33C75.25,33.79,67.77,31.09,61.6,33.38z"/>
	</g>
</g>
</svg>
